<mxfile host="app.diagrams.net" modified="2020-08-17T10:56:26.444Z" agent="5.0 (Macintosh; Intel Mac OS X 10_15_6) AppleWebKit/537.36 (KHTML, like Gecko) Chrome/84.0.4147.89 Safari/537.36" etag="P8ET7cSCL1lotrJG7pBd" version="13.5.5" type="github">
  <diagram id="0DV8cdwL1OhsOr4in06e" name="Page-1">
    <mxGraphModel dx="946" dy="487" grid="1" gridSize="10" guides="1" tooltips="1" connect="1" arrows="1" fold="1" page="1" pageScale="1" pageWidth="827" pageHeight="1169" math="0" shadow="0">
      <root>
        <mxCell id="0" />
        <mxCell id="1" parent="0" />
        <mxCell id="l57Yh3BWJeF1bEfi-Sfq-8" value="" style="endArrow=none;html=1;" parent="1" edge="1">
          <mxGeometry width="50" height="50" relative="1" as="geometry">
            <mxPoint x="290" y="230" as="sourcePoint" />
            <mxPoint x="289.5" y="110" as="targetPoint" />
          </mxGeometry>
        </mxCell>
        <mxCell id="l57Yh3BWJeF1bEfi-Sfq-7" value="" style="endArrow=none;html=1;" parent="1" edge="1">
          <mxGeometry width="50" height="50" relative="1" as="geometry">
            <mxPoint x="190" y="230" as="sourcePoint" />
            <mxPoint x="189.5" y="110" as="targetPoint" />
          </mxGeometry>
        </mxCell>
        <mxCell id="l57Yh3BWJeF1bEfi-Sfq-4" value="" style="endArrow=none;html=1;" parent="1" edge="1">
          <mxGeometry width="50" height="50" relative="1" as="geometry">
            <mxPoint x="120" y="110" as="sourcePoint" />
            <mxPoint x="380" y="110" as="targetPoint" />
          </mxGeometry>
        </mxCell>
        <mxCell id="l57Yh3BWJeF1bEfi-Sfq-5" value="" style="verticalLabelPosition=bottom;shadow=0;dashed=0;align=center;html=1;verticalAlign=top;strokeWidth=1;shape=mxgraph.electrical.signal_sources.current_source;" parent="1" vertex="1">
          <mxGeometry x="170" y="140" width="40" height="60" as="geometry" />
        </mxCell>
        <mxCell id="l57Yh3BWJeF1bEfi-Sfq-6" value="" style="verticalLabelPosition=bottom;shadow=0;dashed=0;align=center;html=1;verticalAlign=top;strokeWidth=1;shape=mxgraph.electrical.signal_sources.current_source;" parent="1" vertex="1">
          <mxGeometry x="270" y="140" width="40" height="60" as="geometry" />
        </mxCell>
        <mxCell id="l57Yh3BWJeF1bEfi-Sfq-11" value="" style="endArrow=none;html=1;" parent="1" edge="1">
          <mxGeometry width="50" height="50" relative="1" as="geometry">
            <mxPoint x="120" y="230" as="sourcePoint" />
            <mxPoint x="380" y="230" as="targetPoint" />
          </mxGeometry>
        </mxCell>
        <mxCell id="l57Yh3BWJeF1bEfi-Sfq-12" value="&lt;span style=&quot;font-size: 20px&quot;&gt;220kv&lt;/span&gt;" style="text;html=1;strokeColor=none;fillColor=none;align=center;verticalAlign=middle;whiteSpace=wrap;rounded=0;" parent="1" vertex="1">
          <mxGeometry x="414" y="100" width="40" height="20" as="geometry" />
        </mxCell>
        <mxCell id="l57Yh3BWJeF1bEfi-Sfq-13" value="&lt;span style=&quot;font-size: 20px&quot;&gt;110kv&lt;/span&gt;" style="text;html=1;strokeColor=none;fillColor=none;align=center;verticalAlign=middle;whiteSpace=wrap;rounded=0;" parent="1" vertex="1">
          <mxGeometry x="414" y="220" width="40" height="20" as="geometry" />
        </mxCell>
        <mxCell id="l57Yh3BWJeF1bEfi-Sfq-14" value="&lt;font style=&quot;font-size: 20px&quot;&gt;主变p1&lt;/font&gt;" style="text;html=1;strokeColor=none;fillColor=none;align=center;verticalAlign=middle;whiteSpace=wrap;rounded=0;" parent="1" vertex="1">
          <mxGeometry x="70" y="160" width="90" height="20" as="geometry" />
        </mxCell>
        <mxCell id="l57Yh3BWJeF1bEfi-Sfq-15" value="&lt;font style=&quot;font-size: 20px&quot;&gt;主变p1&lt;/font&gt;" style="text;html=1;strokeColor=none;fillColor=none;align=center;verticalAlign=middle;whiteSpace=wrap;rounded=0;" parent="1" vertex="1">
          <mxGeometry x="330" y="160" width="90" height="20" as="geometry" />
        </mxCell>
        <mxCell id="84ScU52zvooBAnUEAmMQ-1" value="Untitled Layer" parent="0" />
      </root>
    </mxGraphModel>
  </diagram>
</mxfile>
